<svg width="1132" height="406" viewBox="0 0 1132 406" fill="none" xmlns="http://www.w3.org/2000/svg">
<path d="M859.006 108.426C878.378 106.116 898.036 103.8 917.481 106.122C922.773 106.691 928.021 107.604 933.192 108.853C938.276 110.202 943.249 111.938 948.065 114.046C957.19 117.932 965.532 123.435 972.691 130.291C986.316 143.41 993.872 162.12 991.809 181.1C989.811 199.134 981.443 215.887 968.213 228.345C954.434 241.251 936.072 248.88 917.559 251.368C908.015 252.717 898.352 252.959 888.761 252.088C883.889 251.786 879.076 250.875 874.435 249.375C869.609 247.629 864.618 245.135 861.234 241.095C859.129 238.705 857.635 235.84 856.88 232.743C856.125 229.646 856.131 226.409 856.898 223.309C858.295 217.654 862.224 212.804 866.048 208.592C873.108 201.022 881.636 194.971 891.11 190.811C909.471 182.502 930.087 179.536 950.115 180.297C969.431 181.071 988.431 185.357 1006.19 192.946C1025.23 201.012 1041.67 213.528 1057.82 226.222C1061.81 229.373 1065.81 232.54 1069.83 235.658L1067.98 234.227C1080.39 243.838 1093.21 253.066 1107.47 259.747L1094.66 269.43L1075.83 219.328L1092.74 214.993C1094.59 222.477 1096.92 229.832 1099.72 237.011L1098.91 234.907C1102.77 244.67 1107.49 254.066 1113.03 262.982C1113.76 264.296 1114.14 265.779 1114.12 267.285C1114.1 268.791 1113.7 270.269 1112.94 271.573C1111.26 274.471 1108.51 275.633 1105.32 275.922C1098.38 276.585 1091.45 277.305 1084.54 278.083L1079.63 278.656C1082.19 278.362 1079.41 278.687 1078.83 278.757L1075.83 279.13C1072.37 279.576 1068.92 280.039 1065.47 280.518C1051.84 282.397 1038.26 284.597 1024.73 287.116C1016.97 288.549 1009.25 290.076 1001.54 291.695C997.099 292.64 991.961 290.145 990.994 285.417C990.083 280.959 992.515 275.812 997.313 274.845C1025.33 268.943 1053.56 264.328 1082 260.998C1089.83 260.079 1097.68 259.256 1105.53 258.528L1097.82 271.469C1087.85 255.325 1080.44 237.726 1075.87 219.296C1074.78 214.878 1077.57 209.684 1082.18 208.723C1084.38 208.172 1086.71 208.491 1088.68 209.612C1090.61 210.883 1092.05 212.788 1092.73 215.001C1099.03 231.686 1105.32 248.373 1111.61 265.063C1111.99 266.508 1111.98 268.033 1111.56 269.473C1111.02 271.331 1109.88 272.959 1108.32 274.099C1106.95 275.1 1105.33 275.693 1103.65 275.808C1101.96 275.923 1100.28 275.555 1098.8 274.746C1082.02 266.901 1067.23 255.478 1052.71 244.066C1048.63 240.865 1044.58 237.649 1040.49 234.464L1042.32 235.903C1028.05 224.829 1013.24 214.472 996.48 207.479L998.561 208.338C992.443 205.816 986.16 203.708 979.757 202.028C976.634 201.203 973.477 200.492 970.311 199.872C968.724 199.566 967.129 199.285 965.533 199.036C964.698 198.899 963.855 198.77 963.02 198.65C962.472 198.572 961.431 198.491 963.847 198.762C963.315 198.701 962.783 198.624 962.242 198.554C955.742 197.769 949.195 197.418 942.644 197.502C939.326 197.517 936.021 197.672 932.728 197.966C931.112 198.095 929.503 198.264 927.894 198.45C927.344 198.503 926.334 198.718 928.732 198.341C928.272 198.42 927.804 198.457 927.319 198.561C926.35 198.685 925.398 198.826 924.454 198.959C916.517 200.175 908.734 202.257 901.245 205.169L903.344 204.339C896.828 206.895 890.674 210.301 885.046 214.469L886.921 213.063C882.575 216.34 878.676 220.172 875.323 224.46L876.761 222.609C875.391 224.329 874.246 226.216 873.357 228.226L874.231 226.133C873.973 226.779 873.766 227.444 873.612 228.121C873.535 228.424 873.375 229.538 873.612 228.121C873.848 226.705 873.678 228.056 873.675 228.351C873.672 228.646 873.783 228.958 873.716 229.138C873.767 228.991 873.287 227.045 873.604 228.08C873.77 228.68 873.911 229.271 874.118 229.863L873.296 227.767C873.677 228.676 874.163 229.538 874.744 230.334L873.346 228.464C874.123 229.478 875.022 230.393 876.022 231.187L874.177 229.756C875.938 231.087 877.866 232.18 879.913 233.009L877.84 232.142C879.639 232.863 881.491 233.446 883.38 233.886C884.271 234.08 885.171 234.25 886.112 234.445C887.486 234.717 883.787 234.167 885.809 234.419L887.406 234.602C891.505 235.051 895.629 235.292 899.777 235.326C903.926 235.349 908.074 235.144 912.203 234.715C912.597 234.668 914.427 234.46 912.925 234.638C911.423 234.816 913.065 234.614 913.41 234.567C914.477 234.427 915.528 234.27 916.587 234.089C918.618 233.748 920.637 233.349 922.642 232.893C927.228 231.841 931.729 230.444 936.106 228.714L934.007 229.544C940.614 226.911 946.849 223.423 952.554 219.17L950.678 220.576C955.419 216.996 959.675 212.814 963.337 208.137L961.899 209.988C965.597 205.209 968.664 199.976 971.025 194.418L970.159 196.502C971.527 193.238 972.635 189.871 973.471 186.433C973.883 184.731 974.196 183.012 974.477 181.276C974.697 179.843 974.181 183.659 974.434 181.481C974.487 181.087 974.524 180.678 974.561 180.285C974.644 179.408 974.695 178.531 974.753 177.679C974.853 175.958 974.847 174.196 974.767 172.457C974.719 171.596 974.679 170.711 974.574 169.857C974.515 169.217 974.211 167.732 974.657 170.473C974.58 170.013 974.536 169.537 974.443 169.061C973.884 165.468 972.94 161.946 971.628 158.557L972.458 160.645C970.683 156.17 968.33 151.949 965.46 148.087L966.858 149.958C963.399 145.385 959.346 141.294 954.806 137.792L956.651 139.223C951.137 135.007 945.099 131.524 938.685 128.861L940.766 129.719C935.875 127.698 930.814 126.108 925.643 124.967C924.31 124.655 923.05 124.433 921.741 124.194C921.021 124.058 920.317 123.972 919.548 123.819L918.574 123.673C918.246 123.621 916.723 123.447 918.205 123.613C919.687 123.779 917.403 123.509 917.108 123.474C916.442 123.393 915.787 123.323 915.143 123.264C913.743 123.115 912.359 122.999 910.958 122.899C899.874 122.263 888.753 122.535 877.707 123.712C871.413 124.3 865.133 125.035 858.854 125.787C856.81 126.027 854.104 124.583 852.733 123.188C851.933 122.376 851.302 121.413 850.875 120.355C850.449 119.297 850.235 118.165 850.247 117.022C850.259 115.88 850.497 114.751 850.946 113.699C851.395 112.647 852.047 111.693 852.864 110.892C854.59 109.398 856.763 108.518 859.039 108.393L859.006 108.426Z" fill="#B575BB"/>
<path d="M335.317 266.724C335.31 267.027 335.277 267.329 335.22 267.626C335.22 267.626 335.573 265.28 335.341 266.682C335.206 267.182 335.182 267.723 335.078 268.243C334.86 269.415 334.594 270.582 334.282 271.744C333.983 272.854 333.703 273.898 333.281 274.927C333.126 275.505 332.87 276.008 332.649 276.603L332.718 276.348C333.347 274.862 332.768 276.159 332.673 276.514C331.706 278.604 330.593 280.624 329.343 282.56C328.738 283.505 328.106 284.418 327.395 285.311C327.233 285.562 327.052 285.8 326.853 286.022C326.853 286.022 328.281 284.263 327.403 285.325C327.026 285.783 326.646 286.252 326.246 286.705C324.697 288.467 323.038 290.133 321.279 291.691C320.434 292.452 319.558 293.193 318.665 293.906C318.173 294.297 316.342 295.531 318.647 293.972C318.145 294.313 317.658 294.683 317.153 295.035C315.19 296.383 313.151 297.62 311.044 298.738C310.029 299.275 308.984 299.792 307.933 300.283C307.381 300.539 306.806 300.79 306.248 301.021C305.69 301.252 304.756 301.536 307.022 300.705L306.157 301.044C303.923 301.899 301.638 302.62 299.315 303.205C298.185 303.496 297.044 303.785 295.921 303.959C295.308 304.08 294.713 304.182 294.095 304.278C293.8 304.362 293.495 304.409 293.188 304.415C293.323 304.451 295.284 304.169 294.052 304.302C291.61 304.585 289.152 304.72 286.691 304.704C285.49 304.678 284.297 304.62 283.11 304.539C282.446 304.491 281.773 304.429 281.104 304.356C280.762 304.324 280.434 304.284 280.093 304.251C278.918 304.126 280.645 304.4 280.92 304.367C279.665 304.284 278.421 304.073 277.209 303.738C275.81 303.457 274.423 303.132 273.044 302.773C270.614 302.127 268.219 301.36 265.866 300.474C265.242 300.234 264.597 300.025 263.998 299.733C264.088 299.758 266.166 300.661 264.772 300.048L264.077 299.755C262.773 299.166 261.475 298.555 260.2 297.902C257.947 296.749 255.746 295.494 253.597 294.138C252.568 293.469 251.466 292.756 250.43 292.025C249.87 291.636 249.312 291.236 248.766 290.839C248.22 290.443 246.255 288.807 248.329 290.531C246.352 288.893 244.364 287.298 242.496 285.569C240.628 283.841 238.575 281.765 236.804 279.765C236.002 278.882 235.217 277.981 234.46 277.063C234.018 276.551 233.536 276.005 233.147 275.519C232.938 275.261 232.736 274.98 232.516 274.718C232.736 274.98 233.638 276.211 232.947 275.275C229.727 271 226.86 266.478 224.374 261.754C223.051 259.255 221.848 256.717 220.716 254.138C220.091 252.779 221.441 255.94 220.656 254.003L219.914 252.268C219.401 250.939 218.91 249.617 218.431 248.297C216.585 243.062 215.058 237.725 213.856 232.315C213.269 229.645 212.738 226.942 212.29 224.25C212.081 223.003 211.918 221.768 211.705 220.58C212.145 223.08 211.742 220.804 211.66 220.163L211.365 217.798C210.014 206.505 209.633 195.126 210.225 183.784C210.314 182.284 210.425 180.79 210.56 179.302L210.767 177.227C210.854 176.905 210.983 175.57 210.797 176.889C210.612 178.209 210.926 176.412 210.894 176.261C211.317 173.214 211.915 170.194 212.685 167.217C213.067 165.796 213.449 164.374 213.922 162.977L214.6 161.04L215.011 159.96L215.219 159.409L214.889 160.189C214.845 159.678 215.508 158.784 215.733 158.309C216.071 157.59 216.418 156.886 216.781 156.209C217.446 154.948 218.154 153.709 218.98 152.526C219.272 152.069 219.573 151.626 219.884 151.186C220.165 150.634 220.533 150.13 220.975 149.693C220.975 149.693 219.535 151.449 220.459 150.352L220.905 149.817C221.351 149.282 221.805 148.762 222.282 148.247C223.943 146.499 225.723 144.865 227.61 143.357C228.326 142.764 226.678 144.083 226.752 143.984C226.989 143.779 227.244 143.596 227.515 143.439C228.021 143.087 228.538 142.737 229.004 142.398C230.043 141.725 231.115 141.109 232.21 140.546C232.688 140.293 233.164 140.052 233.615 139.816C233.891 139.688 235.983 138.786 234.472 139.416C232.961 140.045 234.776 139.319 235.148 139.193C235.802 138.964 236.469 138.774 237.115 138.531C238.209 138.222 239.318 137.968 240.438 137.769C240.54 137.797 241.326 137.615 241.334 137.629C241.342 137.643 239.379 137.842 240.206 137.778C241.033 137.715 241.557 137.654 242.242 137.623C243.378 137.57 244.517 137.582 245.653 137.66C245.867 137.717 246.103 137.697 246.337 137.724C247.75 137.819 245.43 137.635 245.374 137.573C246.037 137.778 246.722 137.903 247.414 137.943C248.517 138.168 249.605 138.46 250.672 138.819C251.089 138.931 252.785 139.637 251.258 138.976C249.732 138.316 251.797 139.264 252.179 139.462C253.16 139.963 254.113 140.517 255.033 141.122C255.464 141.405 255.876 141.718 256.293 142.009C257.433 142.803 255.574 141.446 255.555 141.429C255.862 141.629 256.143 141.865 256.393 142.131C257.237 142.858 258.036 143.62 258.799 144.421C259.156 144.803 259.513 145.184 259.844 145.571C260.175 145.958 260.231 146.02 260.423 146.251C261.338 147.342 260.371 146.082 260.034 145.717C261.534 147.543 262.777 149.56 263.729 151.712L264.434 153.092C265.019 154.332 264.136 152.357 264.106 152.289C264.24 152.552 264.338 152.863 264.447 153.131C264.892 154.263 265.272 155.413 265.612 156.576C265.952 157.739 266.229 158.777 266.425 159.89C266.54 160.409 266.617 160.93 266.717 161.457C266.967 162.822 266.61 160.642 266.591 160.577C266.671 160.95 266.715 161.328 266.722 161.708C266.949 164.032 266.96 166.371 266.754 168.694C266.69 168.991 266.662 169.295 266.667 169.599C266.667 169.599 267.005 167.309 266.783 168.63L266.479 170.346C266.213 171.692 265.881 173.019 265.492 174.331C265.102 175.644 264.716 176.766 264.252 177.951C264.145 178.273 264.019 178.589 263.877 178.898C263.85 178.998 264.698 177.059 264.267 177.943C263.937 178.628 263.628 179.331 263.275 180.058C262.091 182.426 260.727 184.702 259.196 186.867C258.844 187.367 258.492 187.868 258.137 188.332C257.912 188.594 257.702 188.867 257.506 189.151C258.492 187.463 258.341 188.113 257.929 188.61C257.029 189.666 256.151 190.727 255.189 191.743C253.34 193.703 251.384 195.561 249.329 197.311C248.327 198.161 247.297 198.979 246.247 199.78C245.664 200.243 245.273 200.078 246.759 199.406C246.455 199.584 246.168 199.79 245.904 200.022L244.179 201.224C241.958 202.739 239.664 204.138 237.296 205.422C235.056 206.653 232.76 207.774 230.416 208.847C229.81 209.124 229.207 209.391 228.595 209.643L227.912 209.936C226.901 210.367 229.642 209.21 228.603 209.657C227.564 210.104 226.148 210.605 224.906 211.044C220.093 212.75 215.161 214.117 210.147 215.137C207.594 215.641 205.092 215.956 202.548 216.427C205.225 215.956 202.961 216.372 202.324 216.45L200.593 216.64C199.264 216.771 197.939 216.89 196.608 216.985C191.433 217.342 186.239 217.401 181.052 217.16C178.449 217.044 175.84 216.854 173.247 216.609C171.987 216.485 170.733 216.338 169.471 216.177C167.331 215.912 171.089 216.41 169.539 216.196C168.782 216.087 168.037 215.982 167.283 215.863C162.107 215.064 156.973 214.009 151.899 212.703C146.846 211.404 141.787 209.853 136.941 208.097C135.55 207.604 134.154 207.086 132.776 206.549C131.253 206.078 129.771 205.484 128.346 204.774C130.031 205.787 129.431 205.233 128.858 204.983L127.775 204.514C127.13 204.245 126.492 203.966 125.86 203.677C124.401 203.035 122.96 202.374 121.555 201.71C110.308 196.377 99.4476 190.274 89.0548 183.446C83.9172 180.077 78.765 176.536 73.7524 172.926C71.3217 171.177 68.8999 169.395 66.4924 167.604C65.2973 166.7 64.0969 165.77 62.8958 164.887C62.2633 164.408 61.6195 163.925 60.9899 163.434C60.3604 162.943 58.2476 161.316 60.1671 162.808C55.4323 159.154 50.7155 155.433 46.0414 151.687L42.1602 166.122C62.3518 161.084 81.8742 153.773 100.345 144.333C105.429 141.731 110.431 138.965 115.353 136.034C119.253 133.713 121.07 128.26 118.518 124.264C115.795 119.96 110.994 119.026 106.558 121.048L64.0167 140.399C63.2451 140.752 62.4509 141.098 61.6877 141.464C60.3007 142.127 63.9148 140.598 62.8939 140.979L61.0736 141.68C59.362 142.291 57.6369 142.863 55.9117 143.435C51.9329 144.747 47.8864 146.04 43.878 147.236C41.4771 147.984 39.0567 148.714 36.6475 149.447C32.4658 150.704 28.7964 155.54 30.5407 160.021C34.7581 170.8 38.966 181.583 43.1644 192.372C51.2763 213.151 59.343 233.934 67.3643 254.72C71.1417 264.467 74.8922 274.255 78.6157 284.083C79.2853 286.227 80.7121 288.069 82.6357 289.271C84.6812 290.437 87.1039 290.763 89.3781 290.179C93.5486 288.919 97.1917 284.136 95.4736 279.602C88.2358 260.487 80.8276 241.421 73.3969 222.349C66.2293 203.872 59.0427 185.406 51.8372 166.95L47.3761 155.535L41.2806 166.112C47.343 164.289 53.3918 162.427 59.4194 160.464C70.278 156.942 80.4707 151.896 90.7947 147.171L115.268 136.035L106.473 121.049C97.9393 126.135 89.1154 130.735 80.0441 134.827C77.8292 135.826 75.5864 136.795 73.3264 137.783L72.265 138.224C73.4998 137.722 71.7644 138.422 71.4686 138.533C70.2481 139.027 69.0193 139.506 67.8054 139.93C63.1618 141.705 58.4579 143.346 53.6937 144.851C48.3134 146.579 42.886 148.108 37.4114 149.438C35.9399 149.833 34.6008 150.6 33.5262 151.664C32.4517 152.728 31.6787 154.052 31.2834 155.506C30.5639 158.182 31.2149 161.965 33.5421 163.829C54.2864 180.408 75.4645 196.723 98.8353 209.603C110.555 216.126 122.839 221.597 135.537 225.949C146.538 229.606 157.879 232.149 169.384 233.538C192.3 236.377 215.577 233.873 236.771 224.998C247.772 220.505 257.757 213.918 266.159 205.61C274.748 196.954 281.666 185.836 283.684 173.698C285.681 162.098 283.363 150.143 277.155 140.034C271.127 130.4 261.3 122.578 249.725 120.942C243.608 119.985 237.359 120.427 231.464 122.236C225.501 124.197 219.958 127.218 215.106 131.149C205.246 138.915 199.026 150.495 195.927 162.425C192.561 175.213 192.228 188.815 192.747 201.945C193.133 214.011 194.666 226.024 197.326 237.824C202.628 260.812 213.694 283.088 231.638 299.021C240.783 307.236 251.472 313.595 263.088 317.729C274.406 321.691 286.521 322.829 298.35 321.043C319.399 317.88 339.897 303.639 348.317 284.102C350.729 278.568 352.249 272.69 352.82 266.679C352.791 264.428 351.876 262.268 350.268 260.659C348.593 259.014 346.334 258.082 343.98 258.063C338.828 258.297 335.796 261.888 335.317 266.724V266.724Z" fill="#B575BB"/>
<path d="M449.708 75.0431C464.785 75.6236 480.44 77.9173 493.925 85.1052C505.959 91.5194 516.065 101.606 521.073 114.471C523.548 120.853 524.523 127.719 523.922 134.538C523.245 142.389 520.019 149.597 515.85 156.169C508.362 167.945 496.986 176.521 487.333 186.396C482.624 191.212 478.367 196.45 474.614 202.044C474.099 202.802 473.61 203.558 473.117 204.325L472.542 205.246C473.831 203.29 473.173 204.199 472.904 204.661C471.975 206.234 471.061 207.802 470.195 209.403C468.598 212.362 467.132 215.388 465.795 218.48C464.459 221.573 463.265 224.716 462.213 227.909C461.957 228.681 461.708 229.469 461.473 230.25C461.239 231.032 461.153 232.133 461.579 229.842C461.512 230.192 461.373 230.56 461.285 230.9C460.82 232.567 460.369 234.29 460.006 235.926C458.478 242.565 457.563 249.331 457.274 256.138L457.199 258.32C457.332 255.696 457.216 258.454 457.217 259.075C457.22 260.772 457.259 262.473 457.34 264.193C457.489 267.38 457.809 270.557 458.299 273.709C458.541 275.21 458.814 276.698 459.154 278.179C459.22 278.512 459.313 278.845 459.373 279.163C459.342 279.035 458.848 277.106 459.209 278.482L459.885 280.91C460.786 283.968 461.938 286.946 463.332 289.813L463.785 290.699C464.473 291.993 463.518 290.162 463.446 290.067C463.92 290.748 464.341 291.465 464.705 292.21C465.546 293.555 466.458 294.853 467.438 296.099C467.883 296.664 468.347 297.213 468.811 297.762C469.275 298.31 469.941 298.86 468.241 297.166C468.458 297.389 468.67 297.623 468.897 297.851C470.022 298.975 471.211 300.033 472.458 301.02C473.031 301.465 473.603 301.885 474.19 302.299C474.778 302.712 476.925 303.771 474.412 302.511C475.761 303.176 477.033 303.983 478.411 304.61C479.789 305.237 481.029 305.663 482.384 306.115C483.487 306.48 480.103 305.554 481.728 305.912C482.037 305.986 482.33 306.066 482.639 306.14C483.397 306.313 484.158 306.45 484.966 306.595C485.775 306.74 486.351 306.782 487.047 306.839C487.743 306.896 490.042 306.706 487.36 306.903C488.907 306.782 490.448 306.76 491.983 306.495C492.753 306.357 494.513 305.673 492.11 306.551C492.767 306.325 493.443 306.171 494.105 305.934C495.481 305.459 496.745 304.782 498.075 304.21C495.497 305.339 497.84 304.283 498.459 303.888C499.078 303.493 499.469 303.211 499.956 302.858C500.442 302.505 501.028 302.07 501.561 301.612C502.095 301.153 504.035 299.043 502.137 301.172C504.005 299.081 505.958 297.141 507.627 294.872C508.477 293.732 509.279 292.558 510.054 291.359C510.171 291.095 511.068 289.735 510.162 291.116C509.256 292.497 510.162 291.116 510.275 290.863C510.679 290.182 511.078 289.486 511.466 288.786C512.9 286.222 514.212 283.592 515.449 280.928C518.644 274.073 521.611 267.105 524.425 260.08C535.629 232.757 546.3 204.614 565.201 181.482C573.546 171.277 583.471 161.953 594.855 155.204C603.704 149.828 613.489 146.175 623.695 144.438C632.567 143.125 641.551 142.738 650.502 143.285C659.486 143.726 668.435 144.713 677.299 146.241C694.865 149.316 712.209 153.541 729.221 158.889C738.756 161.797 748.244 164.95 757.57 168.499L758.886 169.01L748.306 182.016L734.758 161.597L713.174 129.484L708.178 122.042C705.647 118.268 706.159 112.547 710.157 109.936C712.042 108.639 714.355 108.122 716.612 108.491C718.869 108.86 720.896 110.087 722.269 111.917C733.253 126.053 743.869 140.531 753.574 155.604C757.262 161.298 760.747 167.105 763.885 173.124C765.547 176.32 763.811 181.408 760.841 183.274L680.12 234.107L657.284 248.435C653.449 250.852 647.837 250.554 645.177 246.444C642.741 242.713 643.086 236.942 647.167 234.343L727.936 183.545L750.776 169.205L747.744 179.36L747.292 178.5C746.594 177.227 748.412 180.557 747.71 179.294C747.439 178.794 747.169 178.294 746.883 177.799C746.233 176.665 745.575 175.529 744.911 174.389C743.468 171.948 741.943 169.521 740.409 167.116C737.102 161.959 733.665 156.895 730.157 151.876C724.277 143.475 718.224 135.186 711.999 127.01C710.741 125.348 709.488 123.701 708.216 122.071L722.326 111.904L735.947 132.216L757.477 164.306L762.484 171.753C764.55 174.838 764.733 179.426 762.139 182.32C760.899 183.743 759.245 184.741 757.409 185.174C755.572 185.607 753.647 185.453 751.903 184.733C745.316 182.139 738.602 179.855 731.877 177.655C728.577 176.581 725.271 175.529 721.959 174.501L719.337 173.712C718.915 173.524 718.445 173.441 717.995 173.316C716.804 172.95 719.473 173.747 719.316 173.702C719.159 173.658 718.713 173.522 718.409 173.437C716.431 172.86 714.447 172.296 712.457 171.746C704.076 169.429 695.617 167.342 687.129 165.521C678.236 163.671 669.259 162.151 660.237 161.13C655.829 160.659 651.415 160.312 646.98 160.158L645.399 160.099C645.109 160.096 644.815 160.104 644.524 160.076C644.46 160.048 647.025 160.14 645.767 160.124C644.509 160.108 643.573 160.108 642.482 160.115C640.387 160.131 638.305 160.203 636.219 160.311C632.252 160.531 628.302 160.994 624.391 161.698C623.482 161.862 622.58 162.042 621.678 162.248C621.258 162.339 619.502 162.759 621.278 162.323C623.054 161.887 621.028 162.401 620.624 162.513C618.918 163.018 617.244 163.538 615.634 164.086C613.086 165.046 610.596 166.15 608.174 167.394L607.269 167.864C605.975 168.553 607.744 167.62 607.87 167.537C607.258 167.973 606.511 168.286 605.861 168.667C604.459 169.485 603.083 170.328 601.726 171.216C599.021 172.998 596.405 174.921 593.888 176.963C592.694 177.938 591.517 178.932 590.362 179.962C589.86 180.409 589.386 180.932 588.85 181.338C590.543 180.068 589.775 180.485 589.357 180.855L588.245 181.93C583.608 186.472 579.317 191.355 575.408 196.537C573.483 199.097 571.628 201.726 569.863 204.408C569.005 205.709 568.131 207.016 567.336 208.345C567.388 208.229 568.509 206.424 567.742 207.69L567.202 208.589L565.754 211.044C558.136 224.219 552.134 238.253 546.386 252.312C540.801 265.949 535.683 279.959 528.863 293.046C522.753 304.74 514.524 316.048 501.939 321.261C488.646 326.729 473.591 323.146 462.36 314.76C451.129 306.375 444.713 293.148 441.769 279.57C438.944 266.348 439.32 252.161 441.677 238.895C444.136 224.94 449.005 211.519 456.066 199.232C459.7 192.875 463.885 186.849 468.571 181.223C473.127 176.045 477.975 171.131 483.09 166.505C488.291 161.827 493.189 156.822 497.753 151.521C498.804 150.242 499.812 148.945 500.762 147.609C501.234 146.946 501.68 146.258 502.131 145.586C502.966 144.338 501.821 146.055 501.77 146.197C502 145.713 502.27 145.249 502.578 144.81C503.36 143.412 504.065 141.973 504.69 140.498C505.015 139.77 505.34 139.041 505.548 138.261C505.642 137.824 505.781 137.398 505.963 136.99L505.613 138.201L505.877 137.154C506.237 135.658 506.492 134.139 506.638 132.607C506.716 131.921 506.758 131.23 506.8 130.54C506.878 129.145 506.795 131.348 506.792 131.41C506.827 130.953 506.816 130.494 506.757 130.04C506.729 128.682 506.619 127.327 506.428 125.982C506.31 125.309 506.191 124.611 506.05 123.991C505.825 122.878 506.669 126.178 506.196 124.6L505.822 123.281C505.436 122.046 504.99 120.834 504.486 119.635C504.215 118.995 503.934 118.377 503.632 117.748L503.223 116.933C502.5 115.434 504.167 118.62 503.398 117.251C501.923 114.706 500.236 112.29 498.355 110.029C497.946 109.555 497.497 109.115 497.108 108.625C498.889 110.875 497.195 108.74 496.693 108.25C495.687 107.27 494.637 106.334 493.552 105.445C492.468 104.557 491.349 103.717 490.197 102.924C489.876 102.706 489.556 102.487 489.221 102.274C488.342 101.693 488.251 102.209 489.738 102.505C488.829 102.128 487.962 101.657 487.151 101.099C483.965 99.3895 480.644 97.9433 477.222 96.7747C476.417 96.4143 475.574 96.1447 474.709 95.9707C474.709 95.9707 476.882 96.5725 475.248 96.1226C474.889 95.9627 474.494 95.913 474.117 95.8211C472.217 95.3158 470.303 94.868 468.369 94.5247C461.363 93.2158 454.266 92.4523 447.142 92.2413C445.038 92.1643 442.578 90.359 441.404 88.7345C440.08 86.876 439.523 84.5785 439.848 82.3192C440.027 81.1763 440.43 80.0801 441.035 79.0939C441.64 78.1076 442.433 77.2508 443.371 76.5728C445.257 75.3683 447.492 74.8313 449.719 75.0478L449.708 75.0431Z" fill="#19A4AB"/>
</svg>
